<svg width="1651.1" height="281.5" viewBox="0 0 436.9 74.5" xmlns="http://www.w3.org/2000/svg"><g style="display:inline"><path d="M255.1 906.1c.5.3 1.4.6 2.3.6 2.1 0 3.1-1.2 3.1-2.6 0-1.3-.7-2-2.3-2.6-1.2-.5-1.7-1-1.7-1.7s.4-1.4 1.6-1.4c.9 0 1.5.3 1.7.4l.3-.9a4 4 0 0 0-2-.4c-1.7 0-2.8 1-2.8 2.4 0 1.2.9 2 2.4 2.5 1.2.5 1.6 1 1.6 1.8 0 .9-.6 1.5-1.8 1.5a4 4 0 0 1-2-.6zm9.7.4h1.2v-8h2.7v-.9h-6.6v1h2.7zm5.9 0h1.2v-3.8h1c1 0 1.6.5 1.8 1.7l.6 2.1h1.2c-.2-.3-.4-1.2-.7-2.4-.2-1-.6-1.6-1.3-1.8 1-.4 1.7-1.2 1.7-2.3 0-.7-.3-1.3-.7-1.7-.5-.5-1.4-.8-2.6-.8l-2.2.2zm1.2-8h1c1.3 0 2.1.4 2.1 1.6 0 1-.7 1.7-2 1.7H272zm11.6 5.2 1 2.8h1.2l-3-8.9h-1.4l-3 9h1.1l1-2.9zm-3-.9 1-2.6.4-1.6.5 1.7.9 2.5zm8.2 3.7h1.2v-8h2.7v-.9H286v1h2.7zm10.5-5.1h-3.4v-2.8h3.6v-1h-4.8v9h5v-1h-3.8v-3.2h3.4zm9.7.5H306v.9h1.8v2.6c-.3.2-.8.3-1.5.3-2.1 0-3.5-1.4-3.5-3.6 0-2.3 1.4-3.6 3.6-3.6 1 0 1.5.1 2 .4l.3-1c-.4-.2-1.2-.4-2.3-.4-3 0-4.8 2-4.8 4.6 0 1.4.5 2.6 1.2 3.4 1 .8 2 1.1 3.4 1.1a8 8 0 0 0 2.7-.4zm2.8-4.3v9h1.2v-9zm10.2 7.7c-.5.3-1.2.4-2 .4-2 0-3.3-1.4-3.3-3.6 0-2.3 1.4-3.7 3.4-3.7.8 0 1.4.2 1.8.4l.3-1c-.3-.1-1-.3-2-.3-2.9 0-4.8 1.8-4.8 4.7 0 2.9 2 4.5 4.4 4.5 1.1 0 2-.2 2.4-.4zm6.5 1.2h5v-1h-3.9v-7.9h-1.1zm11.9-5.1h-3.5v-2.8h3.7v-1h-4.9v9h5v-1h-3.8v-3.2h3.5zm6.2 5.1 3.2-8.9h-1.2L347 902c-.4 1.2-.8 2.3-1 3.4l-1-3.4-1.4-4.4h-1.3l3 9zm9.8-5.1h-3.5v-2.8h3.7v-1h-4.8v9h5v-1h-3.9v-3.2h3.5zm3 5.1h1v-3.8h1.2c1 0 1.5.5 1.8 1.7.2 1.1.4 1.9.6 2.1h1.1l-.6-2.4c-.3-1-.7-1.6-1.3-1.8.9-.4 1.6-1.2 1.6-2.3 0-.7-.2-1.3-.7-1.7-.5-.5-1.3-.8-2.6-.8l-2.2.2zm1-8h1.2c1.2 0 2 .4 2 1.6 0 1-.7 1.7-2 1.7h-1.1zm11.7 5.2 1 2.8h1.2l-3-8.9h-1.4l-3 9h1.1l1-2.9zm-2.9-.9.9-2.6.4-1.6.5 1.7 1 2.5zm14-1h-2.9v1h1.8v2.6c-.2.2-.8.3-1.5.3-2.1 0-3.5-1.4-3.5-3.6 0-2.3 1.5-3.6 3.6-3.6 1 0 1.5.1 2 .4l.3-1c-.4-.2-1.2-.4-2.2-.4-3 0-4.9 2-4.9 4.6 0 1.4.5 2.6 1.3 3.4.8.8 2 1.1 3.3 1.1a8 8 0 0 0 2.8-.4zm7.4-.4h-3.4v-2.8h3.7v-1h-4.9v9h5v-1h-3.8v-3.2h3.4zm6.8 5.1h1.1V903h1c1 0 2-.3 2.7-1 .4-.4.7-1 .7-1.8s-.3-1.5-.8-2c-.5-.4-1.4-.7-2.5-.7l-2.2.2zm1.1-8h1.1c1.3 0 2.1.5 2.1 1.7s-.8 2-2.2 2l-1-.2zm10.4 5.2 1 2.8h1.2l-3-8.9h-1.4l-3 9h1.1l1-2.9zm-2.9-.9.9-2.6.4-1.6.5 1.7.9 2.5zm7.4 3.7h1.2v-3.8h1c1.1 0 1.6.5 1.9 1.7.2 1.1.4 1.9.6 2.1h1.2c-.2-.3-.4-1.2-.7-2.4-.2-1-.7-1.6-1.3-1.8.9-.4 1.6-1.2 1.6-2.3 0-.7-.2-1.3-.7-1.7-.5-.5-1.3-.8-2.6-.8l-2.2.2zm1.2-8h1.1c1.2 0 2 .4 2 1.6 0 1-.7 1.7-2 1.7h-1.1zm8.8 8h1.2v-8h2.7v-.9h-6.6v1h2.7zm7 0v-3.8l-.1-3.7c.5 1 1 2 1.7 3l2.8 4.5h1.2v-8.9h-1v7.4l-1.6-2.9-2.8-4.5h-1.3v9zm13.2-5.1h-3.4v-2.8h3.6v-1H439v9h5v-1h-3.8v-3.2h3.4zm3 5.1h1.1v-3.8h1c1.1 0 1.6.5 1.9 1.7.2 1.1.4 1.9.6 2.1h1.2c-.2-.3-.4-1.2-.7-2.4-.2-1-.6-1.6-1.3-1.8 1-.4 1.7-1.2 1.7-2.3 0-.7-.3-1.3-.7-1.7-.6-.5-1.4-.8-2.6-.8l-2.3.2zm1.1-8h1.1c1.3 0 2.1.4 2.1 1.6 0 1-.8 1.7-2 1.7h-1.2z" style="font-size:13.27px;font-family:MyriadPro-Regular,'Myriad Pro';letter-spacing:1px;fill:#fff" class="cls-1" aria-label="Strategic Leverage Partner" transform="matrix(1.78109 0 0 1.78109 -368.7 -1578)"/><g style="font-size:9.29px;font-family:MyriadPro-Regular,'Myriad Pro';letter-spacing:.31em;fill:#d49724" class="cls-7" aria-label="FINANCIAL SOLUTIONS"><path d="M136.7 61.2h1.5v-5h4.2V55h-4.2v-3.7h4.5V50h-6zM150 50.1v11.1h1.5V50.1zm10.5 11.1v-4.7l-.1-4.6 2 3.7 3.6 5.6h1.5V50.1H166v4.7c0 1.7 0 3 .2 4.5l-2-3.6-3.6-5.6H159v11.1zm20.4-3.5 1.2 3.5h1.5l-3.8-11.1H178l-3.8 11.1h1.5l1.1-3.5zm-3.7-1 1.1-3.3.6-2 .6 2 1 3.2zm14.5 4.5V52c.5 1.2 1.3 2.4 2 3.7l3.6 5.6h1.4V50.1h-1.3v4.7c0 1.7 0 3 .2 4.5h-.1l-2-3.6-3.5-5.6h-1.6v11.1zm22.2-1.5c-.6.3-1.5.5-2.4.5-2.7 0-4.3-1.7-4.3-4.5 0-3 1.8-4.6 4.4-4.6 1 0 1.7.2 2.2.5l.4-1.2a6 6 0 0 0-2.6-.5c-3.5 0-5.9 2.4-5.9 5.9 0 3.6 2.4 5.6 5.5 5.6a7 7 0 0 0 3-.5zm7.2-9.6v11.1h1.5V50.1zm14.9 7.6 1.1 3.5h1.6l-3.8-11.1H233l-3.8 11.1h1.4l1.2-3.5zm-3.7-1 1-3.3.7-2 .6 2 1 3.2zm13.1 4.5h6.3V60h-4.8V50h-1.5zm21-.5c.7.4 1.8.7 3 .7 2.5 0 3.8-1.5 3.8-3.2 0-1.6-1-2.6-2.8-3.3-1.6-.6-2.2-1-2.2-2.1 0-.8.5-1.7 2-1.7 1 0 1.8.3 2.2.5l.4-1.1a5 5 0 0 0-2.5-.6c-2.2 0-3.6 1.3-3.6 3 0 1.6 1.1 2.5 3 3.2 1.4.6 2 1.2 2 2.2 0 1.1-.8 2-2.3 2-1 0-2-.4-2.6-.8zm18.4-10.8c-3 0-5.1 2.3-5.1 5.8 0 3.4 2 5.7 5 5.7 2.8 0 5.1-2 5.1-5.9 0-3.3-2-5.6-5-5.6zm0 1.2c2.4 0 3.5 2.3 3.5 4.5 0 2.5-1.3 4.6-3.5 4.6-2.3 0-3.6-2-3.6-4.5 0-2.4 1.2-4.6 3.6-4.6z"/><path style="letter-spacing:.27em" d="M373.5 920.4h3.5v-.7h-2.7v-5.6h-.8z" transform="matrix(1.78109 0 0 1.78109 -368.7 -1578)"/><path style="letter-spacing:.31em" d="M380.4 914.1v3.7c0 2 1 2.7 2.2 2.7 1.4 0 2.4-.8 2.4-2.7V914h-.8v3.7c0 1.4-.6 2-1.5 2s-1.5-.6-1.5-2v-3.7zm10 6.3h.9v-5.6h2v-.7h-4.7v.7h1.9zm6.4-6.3v6.3h.8V914zm7.6 0c-1.7 0-2.9 1.2-2.9 3.2 0 1.9 1.2 3.2 2.8 3.2 1.6 0 3-1.2 3-3.3 0-1.9-1.2-3.2-2.9-3.2zm0 .6c1.3 0 2 1.3 2 2.5 0 1.4-.7 2.6-2 2.6s-2-1.2-2-2.5c0-1.4.6-2.6 2-2.6zm7.5 5.7V915l1.2 2.1 2 3.2h.8V914h-.8v2.6l.1 2.6-1.1-2-2-3.2h-1v6.3zm8-.3c.3.2 1 .4 1.5.4 1.5 0 2.2-.9 2.2-1.8 0-1-.5-1.5-1.6-1.9-.8-.3-1.2-.6-1.2-1.2 0-.4.3-1 1.2-1 .5 0 1 .3 1.1.4l.3-.7c-.3-.1-.8-.3-1.4-.3-1.2 0-2 .7-2 1.7 0 .9.6 1.4 1.6 1.8.9.3 1.2.7 1.2 1.2 0 .7-.5 1.1-1.3 1.1-.6 0-1-.2-1.4-.4z" transform="matrix(1.78109 0 0 1.78109 -368.7 -1578)"/></g><path style="fill:none;stroke:#fff;stroke-width:2px;stroke-linecap:round;stroke-linejoin:round" class="cls-10" transform="matrix(1.78109 0 0 1.78109 -181 0)" d="M148.2 40.8h-45.6L124.7 1Z"/><path style="fill:none;stroke:#fff;stroke-width:2px;stroke-linejoin:round" class="cls-11" transform="matrix(1.78109 0 0 1.78109 -181 0)" d="M141.9 37.4h-33l16-29.4Z"/><path style="fill:none;stroke:#fff;stroke-width:2px;stroke-linejoin:round" class="cls-11" transform="matrix(1.78109 0 0 1.78109 -181 0)" d="M136.6 34.3h-22.5l11-19.7Z"/><path style="fill:#fff;stroke:#fff;stroke-linejoin:round" class="cls-12" transform="matrix(1.78109 0 0 1.78109 -181 0)" d="M130.7 31H120l5.2-9.4z"/></g></svg>