<?xml version="1.0" encoding="UTF-8" standalone="no"?>
<svg
   version="1.1"
   id="Capa_1"
   x="0"
   y="0"
   viewBox="0 0 95.987513 39.3"
   xml:space="preserve"
   sodipodi:docname="oxial.svg"
   width="95.987511"
   height="39.299999"
   inkscape:version="1.4 (86a8ad7, 2024-10-11)"
   xmlns:inkscape="http://www.inkscape.org/namespaces/inkscape"
   xmlns:sodipodi="http://sodipodi.sourceforge.net/DTD/sodipodi-0.dtd"
   xmlns="http://www.w3.org/2000/svg"
   xmlns:svg="http://www.w3.org/2000/svg"><defs
     id="defs1" /><sodipodi:namedview
     id="namedview1"
     pagecolor="#505050"
     bordercolor="#eeeeee"
     borderopacity="1"
     inkscape:showpageshadow="0"
     inkscape:pageopacity="0"
     inkscape:pagecheckerboard="0"
     inkscape:deskcolor="#505050"
     inkscape:zoom="4.6489342"
     inkscape:cx="38.611"
     inkscape:cy="13.443942"
     inkscape:window-width="1920"
     inkscape:window-height="1051"
     inkscape:window-x="-9"
     inkscape:window-y="-9"
     inkscape:window-maximized="1"
     inkscape:current-layer="Capa_1" /><style
     id="style1">.st0{fill:#fab700}.st1{fill:#00a4df}</style><g
     id="g7"
     transform="translate(-15.9,-43.5)"><path
       class="st0"
       d="m 40.1,59.8 -0.6,-0.6 a 13.3,13.3 0 0 0 -8.4,-4 v 7 c 1.3,0.3 2.5,0.9 3.5,1.9 a 7,7 0 0 1 0,9.8 7,7 0 0 1 -9.8,0 7,7 0 0 1 3.5,-11.7 v -7 c -3.2,0.3 -6,1.6 -8.4,4 -2.7,2.7 -4,6 -4,9.8 0,3.8 1.3,7 4,9.8 2.7,2.7 6,4 9.8,4 3.8,0 7.1,-1.3 9.8,-4 l 0.6,-0.6 a 13.8,13.8 0 0 0 0,-18.4 z"
       id="path1" /><path
       class="st1"
       d="m 50.5,62 v -6.8 c -3.8,0 -7,1.3 -9.8,4 l -0.6,0.6 -0.6,-0.6 a 13.3,13.3 0 0 0 -8.4,-4 v 7 c 1.3,0.3 2.5,0.9 3.5,1.9 a 7,7 0 0 1 0,9.8 c -1.3,1.3 -3,2 -4.9,2 v 6.9 c 3.8,0 7.1,-1.3 9.8,-4 l 0.6,-0.6 0.6,0.6 c 2.7,2.7 6,4 9.8,4 v -7 a 6.8,6.8 0 0 1 -6.9,-6.8 7,7 0 0 1 2,-5 c 1.4,-1.3 3,-2 5,-2 z"
       id="path2" /><circle
       class="st1"
       cx="29"
       cy="52.099998"
       r="1.3"
       id="circle2" /><circle
       class="st1"
       cx="25.5"
       cy="49"
       r="1.5"
       id="circle3" /><circle
       class="st0"
       cx="28.1"
       cy="45"
       r="1.5"
       id="circle4" /><g
       id="g6"
       transform="matrix(1.49736,0,0,1.49736,-64.5,-49.6)"><path
         d="m 82.1,87.8 v -2.3 h 0.1 v 2.3 z m 1.4,-1.6 h 0.3 l 0.2,0.2 0.2,0.2 v 0.7 l -0.2,0.3 -0.2,0.1 h -0.6 l -0.3,-0.1 -0.1,-0.3 v -0.7 l 0.1,-0.2 0.3,-0.2 z m 0,1.5 h 0.2 l 0.2,-0.2 0.2,-0.2 v -0.6 l -0.2,-0.3 -0.2,-0.1 h -0.5 l -0.2,0.1 -0.1,0.3 v 0.6 l 0.1,0.2 0.2,0.2 z m 2.7,0.1 h -0.3 a 0.4,0.4 0 0 1 -0.2,-0.1 l -0.1,-0.2 -0.1,-0.1 h 0.1 l 0.2,0.2 0.3,0.1 h 0.4 l 0.1,-0.3 V 87.2 L 86.4,87.1 H 86.2 L 86,87 v 0 l -0.2,-0.2 -0.1,-0.2 v -0.2 l 0.2,-0.2 h 0.2 l 0.2,-0.1 h 0.4 L 87,86.4 H 86.9 L 86.7,86.2 H 86 v 0.1 l -0.1,0.2 0.1,0.2 h 0.2 l 0.3,0.1 0.3,0.2 0.1,0.2 v 0.2 l -0.2,0.2 h -0.2 z m 1.7,-1.6 h 0.3 l 0.3,0.2 0.1,0.2 v 0.7 l -0.1,0.3 -0.3,0.1 h -0.6 l -0.2,-0.1 -0.2,-0.3 v -0.7 l 0.2,-0.2 0.2,-0.2 z m 0,1.5 h 0.3 l 0.2,-0.2 0.1,-0.2 v -0.6 l -0.1,-0.3 -0.2,-0.1 h -0.5 l -0.2,0.1 -0.2,0.3 v 0.6 l 0.2,0.2 0.2,0.2 z m 1.4,-1.1 v -0.2 l 0.2,-0.1 0.2,-0.1 h 0.5 l 0.2,0.1 0.1,0.2 v 1.3 h -0.1 v -1 l -0.1,-0.4 a 0.5,0.5 0 0 0 -0.4,-0.2 h -0.2 l -0.2,0.2 -0.2,0.3 v 1 h -0.1 v -1.5 z m 0.8,-0.8 h -0.2 l -0.2,-0.1 h -0.4 l 0.1,-0.1 H 90 v 0.1 h 0.2 v -0.2 h 0.2 v 0.1 l -0.1,0.1 h -0.1 z m 2,1.6 -0.2,0.3 -0.4,0.1 h -0.2 l -0.2,-0.1 -0.2,-0.2 v -0.4 l 0.2,-0.1 0.2,-0.1 h 0.8 V 86.6 L 92,86.5 91.8,86.4 H 91.2 L 91,86.6 v -0.1 l 0.2,-0.3 h 0.7 l 0.2,0.1 0.1,0.2 v 1.3 z m 0,-0.4 H 92 l -0.3,-0.1 h -0.2 l -0.2,0.1 -0.1,0.2 v 0.5 h 0.2 l 0.2,0.1 h 0.3 l 0.2,-0.2 0.1,-0.2 z m 0.7,-0.8 v 0.4 l 0.2,-0.2 0.1,-0.1 0.2,-0.1 h 0.5 l 0.1,0.2 v 0.2 l 0.2,-0.2 0.1,-0.1 0.2,-0.1 h 0.4 l 0.2,0.1 v 0.2 l 0.1,0.3 v 1 -1.2 L 95,86.5 94.8,86.4 h -0.4 l -0.2,0.1 -0.1,0.2 v 1.1 h -0.2 v -1.3 l -0.2,-0.1 h -0.4 l -0.2,0.1 -0.1,0.3 v 1 h -0.2 z m 3.6,0 h 0.3 l 0.2,0.2 0.2,0.2 v 0.7 l -0.2,0.3 -0.2,0.1 H 96 l -0.3,-0.1 -0.1,-0.3 v -0.7 l 0.1,-0.2 0.3,-0.2 z m 0,1.5 h 0.2 l 0.2,-0.2 0.2,-0.2 v -0.6 l -0.2,-0.3 -0.2,-0.1 h -0.5 l -0.2,0.1 -0.1,0.3 v 0.6 l 0.1,0.2 0.2,0.2 z m 1.8,0.1 h -0.3 a 0.4,0.4 0 0 1 -0.2,-0.1 l -0.1,-0.2 -0.1,-0.1 0.3,0.2 0.3,0.1 h 0.4 l 0.1,-0.3 V 87.2 L 98.4,87.1 H 98.2 L 98,87 v 0 l -0.2,-0.2 -0.1,-0.2 v -0.2 l 0.2,-0.2 h 0.2 l 0.2,-0.1 h 0.4 L 99,86.4 H 98.9 L 98.7,86.2 H 98 v 0.1 l -0.1,0.2 0.1,0.2 h 0.2 l 0.3,0.1 0.3,0.2 0.1,0.2 v 0.2 l -0.2,0.2 h -0.2 z m 1,0.2 0.1,-0.2 v -0.2 h 0.2 v 0.2 l -0.1,0.3 z m 1.7,-0.2 v -2.3 h 0.1 v 2.3 z m 1.3,-1.6 h 0.3 l 0.3,0.2 0.1,0.2 v 0.7 l -0.1,0.3 -0.3,0.1 h -0.6 l -0.2,-0.1 -0.2,-0.3 v -0.7 l 0.2,-0.2 0.2,-0.2 z m 0,1.5 h 0.3 l 0.2,-0.2 0.1,-0.2 v -0.6 l -0.1,-0.3 -0.2,-0.1 H 102 l -0.2,0.1 -0.2,0.3 v 0.6 l 0.2,0.2 0.2,0.2 z m 2.2,-2.2 h 0.1 v 1.1 l 0.3,-0.3 h 0.6 l 0.2,0.1 0.1,0.2 V 88 87 l -0.1,-0.4 a 0.5,0.5 0 0 0 -0.4,-0.2 H 105 l -0.2,0.2 -0.2,0.3 v 1 h -0.1 v -2.3 z m 3,2 -0.2,0.2 -0.4,0.1 h -0.2 l -0.2,-0.1 -0.2,-0.2 v -0.4 l 0.2,-0.1 0.2,-0.1 h 0.8 v -0.3 l -0.1,-0.1 -0.2,-0.1 h -0.6 l -0.2,0.2 v -0.1 l 0.2,-0.3 h 0.7 l 0.2,0.1 0.1,0.2 v 1.3 z m 0,-0.5 h -0.2 l -0.3,-0.1 h -0.2 l -0.2,0.1 -0.1,0.2 v 0.4 l 0.2,0.1 h 0.5 l 0.2,-0.1 0.1,-0.2 z m 2,0.4 a 0.5,0.5 0 0 1 -0.2,0.3 h -0.7 l -0.3,-0.1 -0.1,-0.3 v -0.7 l 0.1,-0.2 0.3,-0.2 h 0.7 l 0.3,0.4 h -0.2 l -0.2,-0.3 h -0.6 l -0.2,0.1 -0.2,0.3 v 0.6 l 0.2,0.2 0.2,0.2 h 0.5 l 0.2,-0.4 z m 1.8,0 v 0.1 l -0.2,0.2 h -0.2 l -0.3,0.1 h -0.3 l -0.2,-0.2 -0.2,-0.2 v -0.7 l 0.2,-0.2 0.2,-0.2 h 0.6 l 0.3,0.1 0.1,0.3 V 87 H 110 v 0.3 l 0.2,0.2 h 0.2 l 0.2,0.1 h 0.4 v -0.2 l 0.2,-0.1 z m 0,-0.5 v -0.2 l -0.2,-0.2 -0.2,-0.2 h -0.5 l -0.2,0.1 -0.1,0.2 -0.1,0.3 z m 0.5,-0.7 h 0.1 v 0.4 l 0.1,-0.2 0.2,-0.1 0.1,-0.1 h 0.6 v 0.2 l 0.1,0.2 0.1,-0.2 0.2,-0.1 0.1,-0.1 h 0.5 l 0.1,0.1 0.1,0.2 v 1.3 -1.2 l -0.1,-0.1 -0.1,-0.1 h -0.5 l -0.2,0.1 v 0.2 L 113,87 v 0.8 h -0.2 v -1.3 l -0.2,-0.1 h -0.4 l -0.2,0.1 -0.1,0.3 v 1 h -0.2 z m 3.6,0 h 0.2 l 0.3,0.2 0.1,0.2 0.1,0.4 v 0.3 l -0.2,0.3 -0.3,0.1 H 115 l -0.3,-0.1 -0.1,-0.3 -0.1,-0.3 v -0.4 l 0.2,-0.2 0.3,-0.2 z m 0,1.5 h 0.2 l 0.2,-0.2 0.1,-0.2 0.1,-0.3 v -0.3 l -0.2,-0.3 -0.2,-0.1 H 115 l -0.2,0.1 -0.1,0.3 -0.1,0.3 v 0.3 l 0.2,0.2 0.2,0.2 z m 1.7,0.1 h -0.2 a 0.4,0.4 0 0 1 -0.2,-0.1 l -0.2,-0.2 v -0.1 l 0.2,0.2 0.4,0.1 h 0.3 l 0.2,-0.3 v -0.2 l -0.2,-0.1 h -0.2 L 116.9,87 h -0.2 l -0.1,-0.2 h -0.1 v -0.4 l 0.1,-0.2 h 0.2 l 0.3,-0.1 h 0.4 l 0.2,0.3 -0.3,-0.2 h -0.6 l -0.1,0.1 v 0.2 l 0.1,0.2 h 0.3 l 0.2,0.1 0.4,0.2 v 0.4 l -0.1,0.2 h -0.2 z"
         id="path4"
         style="fill:#000000;fill-opacity:1;stroke:#000000;stroke-width:0.198;stroke-dasharray:none;stroke-opacity:1" /><path
         class="st1"
         d="m 91.8,74.2 a 5.7,5.7 0 0 1 1.6,4 c 0,1.7 -0.5,3 -1.6,4.1 a 5.3,5.3 0 0 1 -4,1.7 c -1.6,0 -2.9,-0.5 -4,-1.7 a 5.7,5.7 0 0 1 -1.6,-4 c 0,-1.6 0.5,-3 1.6,-4.1 a 5.3,5.3 0 0 1 4,-1.7 5.5,5.5 0 0 1 4,1.7 z m -4,0 c -1.2,0 -2,0.4 -2.8,1.2 a 4,4 0 0 0 -1.1,2.9 c 0,1.1 0.4,2 1.1,2.9 a 3.7,3.7 0 0 0 2.7,1.1 c 1.1,0 2,-0.4 2.8,-1.1 a 4,4 0 0 0 1.1,-3 4,4 0 0 0 -1.1,-2.8 3.6,3.6 0 0 0 -2.8,-1.2 z m 6.3,9.6 3,-3.4 -3,-3.5 h 2.3 l 1.8,2.1 1.8,-2 h 2.2 l -2.9,3.5 2.9,3.4 H 100 l -1.8,-2.1 -1.7,2.1 z m 11,-6.8 v 6.8 h -1.8 V 77 Z m 8.9,-0.2 v 7 h -1.7 v -0.7 c -0.4,0.6 -1.1,1 -2,1 -1,0 -2,-0.4 -2.7,-1.1 a 3.5,3.5 0 0 1 -1,-2.6 c 0,-1 0.3,-2 1,-2.7 a 3.5,3.5 0 0 1 2.7,-1 c 0.9,0 1.6,0.3 2,1 v -0.8 h 1.7 z m -5.1,2.1 c -0.4,0.4 -0.6,0.9 -0.6,1.4 0,0.6 0.2,1 0.6,1.4 0.4,0.4 0.8,0.6 1.4,0.6 0.5,0 1,-0.2 1.4,-0.6 0.4,-0.4 0.6,-0.8 0.6,-1.4 a 2,2 0 0 0 -2,-2 c -0.6,0 -1,0.2 -1.4,0.6 z m 8.8,-6.2 v 11 H 116 v -11 z"
         id="path5"
         style="stroke-width:0.498324" /><path
         class="st0"
         d="m 104.8,73 c 0.2,0.2 0.3,0.4 0.3,0.7 0,0.2 -0.1,0.5 -0.3,0.6 -0.2,0.2 -0.4,0.3 -0.7,0.3 a 0.8,0.8 0 0 1 -0.6,-0.3 0.9,0.9 0 0 1 -0.3,-0.6 c 0,-0.3 0,-0.5 0.3,-0.7 l 0.6,-0.3 c 0.3,0 0.5,0.1 0.7,0.3 z"
         id="path6"
         style="stroke-width:0.498324" /></g></g></svg>
